<?xml version="1.0" encoding="utf-8"?>
<!-- Generator: Adobe Illustrator 15.0.2, SVG Export Plug-In . SVG Version: 6.00 Build 0)  -->
<!DOCTYPE svg PUBLIC "-//W3C//DTD SVG 1.1//EN" "http://www.w3.org/Graphics/SVG/1.1/DTD/svg11.dtd">
<svg version="1.1" id="Шар_1" xmlns="http://www.w3.org/2000/svg" xmlns:xlink="http://www.w3.org/1999/xlink" x="0px" y="0px"
	 width="20px" height="20px" viewBox="0 0 20 20" enable-background="new 0 0 20 20" xml:space="preserve">
<g id="Mekko">
	<path id="Фігура-17" fill="#4D82B8" d="M1,3h6v15.969H1V3z"/>
	<path id="Фігура-17-копія" fill="#8BAED1" d="M1,1h6v2H1V1z"/>
	<path id="Фігура-17-копія-" fill="#8BAED1" d="M9,1h5v4H9V1z"/>
	<path id="Фігура-17-копія-_1_" fill="#70A593" d="M9,5h5v6.984H9V5z"/>
	<path id="Фігура-17-копія-_2_" fill="#CC6044" d="M9,11.984h5v5H9V11.984z"/>
	<path id="Фігура-17-копія-_3_" fill="#4D82B8" d="M9,16.984h5v1.984H9V16.984z"/>
	<path id="Фігура-17-копія-_4_" fill="#4D82B8" d="M16,17.984h3v0.984h-3V17.984z"/>
	<path id="Фігура-17-копія-_5_" fill="#8BAED1" d="M16,1h3v0.984h-3V1z"/>
	<path id="Фігура-17-копія-_6_" fill="#70A593" d="M16,6.984h3v11h-3V6.984z"/>
	<path id="Фігура-17-копія-_7_" fill="#EAC282" d="M16,1.984h3v5h-3V1.984z"/>
</g>
</svg>
